<?xml version="1.0" encoding="UTF-8" standalone="no"?><!DOCTYPE svg PUBLIC "-//W3C//DTD SVG 1.1//EN" "http://www.w3.org/Graphics/SVG/1.1/DTD/svg11.dtd"><svg width="100%" height="100%" viewBox="0 0 400 400" version="1.1" xmlns="http://www.w3.org/2000/svg" xmlns:xlink="http://www.w3.org/1999/xlink" xml:space="preserve" xmlns:serif="http://www.serif.com/" style="fill-rule:evenodd;clip-rule:evenodd;stroke-linejoin:round;stroke-miterlimit:2;"><rect id="default_user" x="0" y="0" width="400" height="400" style="fill:none;"/><clipPath id="_clip1"><rect id="default_user1" serif:id="default_user" x="0" y="0" width="400" height="400"/></clipPath><g clip-path="url(#_clip1)"><path d="M366.5,400c0,-54.088 -43.912,-98 -98,-98l-137,0c-54.088,0 -98,43.912 -98,98c0,54.088 43.912,98 98,98l137,0c54.088,0 98,-43.912 98,-98Z" style="fill:#d8d8d8;"/><path d="M224.5,251.5c0,-13.522 -10.978,-24.5 -24.5,-24.5c-13.522,0 -24.5,10.978 -24.5,24.5l0,61c0,13.522 10.978,24.5 24.5,24.5c13.522,0 24.5,-10.978 24.5,-24.5l0,-61Z" style="fill:#f4f4f4;"/><path d="M319.562,99.725c0,-17.578 -14.271,-31.85 -31.85,-31.85l-27.3,0c-17.578,0 -31.85,14.272 -31.85,31.85l0,47.3c0,17.578 14.272,31.85 31.85,31.85l27.3,0c17.579,0 31.85,-14.272 31.85,-31.85l0,-47.3Z"/><path d="M224.5,129.938c0,32.653 26.471,59.125 59.125,59.125c32.654,0 59.125,-26.472 59.125,-59.125l-59.125,0l-59.125,0Z"/><path d="M299.5,136.5c0,-54.916 -44.584,-99.5 -99.5,-99.5c-54.916,0 -99.5,44.584 -99.5,99.5l0,46c0,54.916 44.584,99.5 99.5,99.5c54.916,0 99.5,-44.584 99.5,-99.5l0,-46Z" style="fill:#fff;"/><circle cx="294.562" cy="147.025" r="20.5" style="fill:#fff;"/><path d="M100.5,136.5l0,36.341c0,0 12.571,-12.652 19.77,-19.898c3.083,-3.103 5.288,-6.969 6.389,-11.203c1.243,-5.068 2.838,-9.634 4.841,-13.683c8.238,-16.65 23.384,-24.535 53.333,-21.374c12.643,1.309 25.409,-0.666 37.066,-5.734c20.21,-8.834 33.948,-7.135 46.601,-3.664c7.278,1.996 11.628,31.156 19.212,32.653c1.242,0.244 5.069,-26.117 6.35,-25.938c-20.291,-134.395 -191.078,-87.777 -192.702,19.375c-0.065,4.281 -1.36,8.658 -0.86,13.125Z"/></g></svg>