<?xml version="1.0" encoding="UTF-8" standalone="no"?><!DOCTYPE svg PUBLIC "-//W3C//DTD SVG 1.1//EN" "http://www.w3.org/Graphics/SVG/1.1/DTD/svg11.dtd"><svg width="100%" height="100%" viewBox="0 0 400 400" version="1.1" xmlns="http://www.w3.org/2000/svg" xmlns:xlink="http://www.w3.org/1999/xlink" xml:space="preserve" xmlns:serif="http://www.serif.com/" style="fill-rule:evenodd;clip-rule:evenodd;stroke-linejoin:round;stroke-miterlimit:2;"><rect id="GameFlairL" x="0" y="0" width="400" height="400" style="fill:none;"/><g id="back"><path d="M349.692,147.68c-95.343,-29.965 -192.744,-54.208 -290.597,-74.502" style="fill:#ff3232;"/><path d="M60.722,65.345l2.296,0.477l2.298,0.479l2.298,0.48l2.298,0.482l2.297,0.483l2.298,0.485l2.297,0.486l2.297,0.488l2.297,0.489l2.297,0.49l2.296,0.493l2.296,0.493l2.296,0.496l2.296,0.496l2.296,0.499l2.295,0.499l2.296,0.502l2.295,0.503l2.294,0.504l2.295,0.506l2.294,0.507l2.294,0.51l2.294,0.51l2.294,0.512l2.293,0.514l2.293,0.516l2.293,0.516l2.292,0.519l2.293,0.52l2.291,0.522l2.292,0.523l2.292,0.525l2.29,0.527l2.291,0.528l2.291,0.53l2.29,0.531l2.29,0.533l2.289,0.535l2.289,0.537l2.289,0.538l2.289,0.539l2.288,0.542l2.288,0.543l2.288,0.544l2.287,0.547l2.287,0.548l2.286,0.55l2.286,0.551l2.286,0.553l2.285,0.555l2.285,0.557l2.285,0.558l2.284,0.56l2.284,0.562l2.284,0.563l2.283,0.565l2.282,0.567l2.282,0.569l2.282,0.57l2.282,0.572l2.281,0.574l2.28,0.576l2.28,0.577l2.28,0.58l2.279,0.581l2.279,0.582l2.278,0.585l2.278,0.586l2.278,0.589l2.277,0.59l2.276,0.591l2.276,0.594l2.276,0.595l2.275,0.598l2.275,0.599l2.274,0.601l2.273,0.603l2.273,0.604l2.273,0.607l2.272,0.608l2.272,0.61l2.271,0.612l2.27,0.614l2.27,0.616l2.27,0.618l2.268,0.619l2.269,0.622l2.268,0.623l2.267,0.626l2.267,0.627l2.266,0.629l2.266,0.631l2.265,0.633l2.264,0.635l2.264,0.637l2.263,0.638l2.263,0.641l2.262,0.643l2.262,0.644l2.261,0.647l2.26,0.648l2.26,0.651l2.259,0.652l2.258,0.655l2.258,0.656l2.257,0.659l2.257,0.66l2.256,0.662l2.255,0.665l2.255,0.666l2.254,0.669l2.253,0.67l2.253,0.673l2.252,0.674l2.251,0.677l2.251,0.679l2.25,0.68l2.249,0.683l2.249,0.685l2.248,0.687l2.247,0.688l2.246,0.691l2.246,0.693l2.245,0.696l2.245,0.697l2.243,0.699l2.243,0.702l2.239,0.702l2.466,1.279l1.88,2.046l1.067,2.566l0.125,2.775l-0.832,2.651l-1.688,2.207l-2.341,1.496l-2.712,0.605l-2.755,-0.359l-2.232,-0.7l-2.228,-0.697l-2.229,-0.695l-2.23,-0.692l-2.231,-0.691l-2.232,-0.689l-2.232,-0.686l-2.233,-0.685l-2.234,-0.682l-2.234,-0.681l-2.235,-0.678l-2.236,-0.677l-2.237,-0.674l-2.237,-0.673l-2.238,-0.67l-2.239,-0.668l-2.24,-0.667l-2.24,-0.664l-2.241,-0.662l-2.241,-0.661l-2.242,-0.658l-2.243,-0.657l-2.244,-0.654l-2.244,-0.652l-2.245,-0.651l-2.245,-0.649l-2.247,-0.646l-2.246,-0.645l-2.248,-0.643l-2.248,-0.64l-2.249,-0.639l-2.249,-0.637l-2.25,-0.635l-2.251,-0.633l-2.251,-0.631l-2.252,-0.63l-2.252,-0.627l-2.254,-0.626l-2.253,-0.623l-2.255,-0.622l-2.254,-0.62l-2.256,-0.618l-2.256,-0.616l-2.257,-0.614l-2.257,-0.612l-2.257,-0.611l-2.259,-0.608l-2.259,-0.607l-2.259,-0.605l-2.26,-0.603l-2.26,-0.601l-2.261,-0.6l-2.262,-0.597l-2.262,-0.596l-2.263,-0.594l-2.263,-0.592l-2.263,-0.591l-2.265,-0.588l-2.264,-0.587l-2.265,-0.585l-2.266,-0.584l-2.266,-0.581l-2.267,-0.58l-2.267,-0.578l-2.268,-0.576l-2.268,-0.574l-2.268,-0.573l-2.27,-0.571l-2.269,-0.569l-2.27,-0.567l-2.27,-0.566l-2.271,-0.564l-2.271,-0.562l-2.272,-0.561l-2.272,-0.559l-2.273,-0.557l-2.273,-0.555l-2.273,-0.554l-2.274,-0.552l-2.274,-0.55l-2.275,-0.549l-2.275,-0.547l-2.275,-0.545l-2.276,-0.544l-2.276,-0.542l-2.277,-0.54l-2.277,-0.539l-2.277,-0.537l-2.278,-0.536l-2.278,-0.533l-2.279,-0.533l-2.278,-0.53l-2.28,-0.529l-2.279,-0.527l-2.28,-0.526l-2.28,-0.524l-2.281,-0.523l-2.28,-0.52l-2.282,-0.52l-2.281,-0.517l-2.282,-0.517l-2.282,-0.514l-2.282,-0.513l-2.283,-0.511l-2.283,-0.51l-2.283,-0.509l-2.284,-0.506l-2.284,-0.506l-2.284,-0.503l-2.284,-0.502l-2.285,-0.501l-2.285,-0.499l-2.285,-0.498l-2.285,-0.496l-2.286,-0.494l-2.286,-0.493l-2.286,-0.492l-2.287,-0.49l-2.286,-0.488l-2.287,-0.487l-2.287,-0.486l-2.287,-0.484l-2.288,-0.483l-2.287,-0.481l-2.288,-0.48l-2.288,-0.478l-2.289,-0.477l-2.291,-0.476l-2.581,-1.028l-2.073,-1.85l-1.316,-2.447l-0.399,-2.75l0.565,-2.72l1.461,-2.363l2.182,-1.72l2.638,-0.871l2.777,0.084Z" style="fill:#ba0044;"/><path d="M349.692,190.292c-98.026,-19.469 -197.479,-33.028 -296.953,-42.612" style="fill:#ff3232;"/><path d="M55.842,139.943l2.337,0.227l2.336,0.229l2.336,0.23l2.337,0.232l2.336,0.233l2.337,0.235l2.336,0.236l2.336,0.238l2.337,0.239l2.336,0.241l2.336,0.242l2.336,0.244l2.336,0.245l2.336,0.247l2.337,0.248l2.336,0.25l2.336,0.252l2.335,0.253l2.336,0.255l2.336,0.256l2.336,0.258l2.335,0.259l2.336,0.261l2.335,0.262l2.336,0.265l2.335,0.265l2.335,0.268l2.335,0.269l2.335,0.27l2.335,0.273l2.335,0.273l2.334,0.276l2.335,0.277l2.334,0.279l2.334,0.28l2.334,0.283l2.334,0.283l2.334,0.286l2.334,0.287l2.333,0.289l2.334,0.29l2.333,0.293l2.333,0.293l2.333,0.296l2.332,0.297l2.333,0.299l2.332,0.301l2.333,0.303l2.332,0.304l2.332,0.306l2.331,0.308l2.331,0.309l2.332,0.311l2.331,0.313l2.331,0.315l2.33,0.317l2.331,0.318l2.33,0.32l2.33,0.322l2.329,0.324l2.33,0.325l2.329,0.327l2.329,0.329l2.329,0.331l2.328,0.333l2.328,0.335l2.329,0.336l2.327,0.338l2.328,0.34l2.327,0.342l2.327,0.344l2.326,0.346l2.327,0.347l2.326,0.35l2.326,0.351l2.325,0.353l2.325,0.355l2.325,0.357l2.325,0.359l2.324,0.361l2.324,0.362l2.324,0.365l2.323,0.366l2.323,0.369l2.323,0.37l2.322,0.373l2.322,0.374l2.321,0.376l2.322,0.378l2.321,0.38l2.32,0.382l2.321,0.385l2.319,0.386l2.32,0.388l2.319,0.39l2.319,0.392l2.318,0.394l2.318,0.396l2.318,0.398l2.317,0.4l2.317,0.402l2.316,0.404l2.316,0.406l2.316,0.408l2.315,0.411l2.315,0.412l2.314,0.414l2.314,0.417l2.314,0.418l2.313,0.421l2.313,0.423l2.312,0.424l2.312,0.427l2.311,0.429l2.311,0.431l2.31,0.433l2.311,0.436l2.309,0.437l2.309,0.439l2.309,0.442l2.308,0.444l2.307,0.446l2.308,0.448l2.306,0.45l2.306,0.452l2.306,0.455l2.302,0.456l2.59,1.005l2.09,1.83l1.338,2.435l0.425,2.746l-0.54,2.725l-1.44,2.377l-2.165,1.74l-2.63,0.895l-2.778,-0.058l-2.294,-0.455l-2.291,-0.451l-2.291,-0.45l-2.292,-0.447l-2.293,-0.445l-2.292,-0.443l-2.294,-0.441l-2.294,-0.439l-2.294,-0.437l-2.295,-0.435l-2.296,-0.432l-2.296,-0.43l-2.296,-0.429l-2.297,-0.426l-2.298,-0.424l-2.298,-0.422l-2.298,-0.42l-2.299,-0.418l-2.3,-0.416l-2.299,-0.414l-2.301,-0.412l-2.3,-0.41l-2.302,-0.408l-2.301,-0.405l-2.302,-0.404l-2.303,-0.402l-2.303,-0.4l-2.303,-0.397l-2.304,-0.396l-2.304,-0.394l-2.305,-0.391l-2.305,-0.39l-2.306,-0.388l-2.306,-0.386l-2.306,-0.383l-2.307,-0.382l-2.307,-0.38l-2.308,-0.378l-2.307,-0.376l-2.309,-0.374l-2.309,-0.372l-2.309,-0.37l-2.309,-0.369l-2.31,-0.366l-2.31,-0.364l-2.311,-0.363l-2.311,-0.361l-2.311,-0.358l-2.311,-0.357l-2.312,-0.355l-2.313,-0.353l-2.312,-0.352l-2.313,-0.349l-2.314,-0.347l-2.313,-0.346l-2.314,-0.344l-2.314,-0.342l-2.315,-0.34l-2.315,-0.338l-2.315,-0.336l-2.315,-0.335l-2.316,-0.333l-2.316,-0.331l-2.317,-0.329l-2.316,-0.327l-2.317,-0.326l-2.318,-0.324l-2.317,-0.322l-2.318,-0.32l-2.318,-0.318l-2.318,-0.317l-2.319,-0.315l-2.318,-0.313l-2.32,-0.311l-2.319,-0.31l-2.319,-0.308l-2.32,-0.306l-2.32,-0.304l-2.32,-0.303l-2.321,-0.301l-2.32,-0.299l-2.321,-0.298l-2.321,-0.296l-2.322,-0.294l-2.321,-0.292l-2.322,-0.291l-2.322,-0.289l-2.322,-0.288l-2.322,-0.285l-2.323,-0.284l-2.322,-0.283l-2.323,-0.28l-2.323,-0.28l-2.323,-0.277l-2.324,-0.276l-2.323,-0.274l-2.324,-0.273l-2.324,-0.271l-2.324,-0.269l-2.324,-0.268l-2.324,-0.266l-2.324,-0.264l-2.325,-0.263l-2.324,-0.262l-2.325,-0.259l-2.325,-0.259l-2.325,-0.256l-2.325,-0.255l-2.325,-0.254l-2.326,-0.252l-2.325,-0.25l-2.326,-0.249l-2.325,-0.247l-2.326,-0.246l-2.326,-0.244l-2.325,-0.243l-2.327,-0.241l-2.325,-0.24l-2.326,-0.238l-2.327,-0.237l-2.326,-0.235l-2.326,-0.234l-2.326,-0.232l-2.327,-0.231l-2.326,-0.229l-2.326,-0.228l-2.327,-0.226l-2.329,-0.225l-2.677,-0.744l-2.261,-1.614l-1.573,-2.29l-0.695,-2.69l0.268,-2.766l1.197,-2.507l1.982,-1.947l2.529,-1.151l2.77,-0.217l2.333,0.226Z" style="fill:#ba0044;"/><path d="M349.692,226.626c-99.866,-3.855 -200.215,-1.648 -299.962,4.487" style="fill:#ff3232;"/><path d="M251.277,216.714l2.352,0.003l2.352,0.006l2.352,0.007l2.352,0.01l2.352,0.011l2.352,0.014l2.351,0.015l2.352,0.017l2.352,0.02l2.351,0.021l2.352,0.024l2.351,0.025l2.352,0.028l2.351,0.03l2.351,0.031l2.352,0.034l2.351,0.036l2.351,0.038l2.351,0.04l2.351,0.042l2.351,0.044l2.35,0.046l2.351,0.049l2.351,0.05l2.35,0.053l2.35,0.055l2.351,0.056l2.35,0.059l2.35,0.062l2.35,0.063l2.349,0.065l2.35,0.068l2.35,0.07l2.349,0.071l2.349,0.075l2.349,0.076l2.349,0.078l2.349,0.081l2.349,0.083l2.349,0.085l2.348,0.087l2.345,0.09l2.715,0.586l2.352,1.48l1.703,2.195l0.85,2.645l-0.105,2.776l-1.049,2.573l-1.866,2.059l-2.457,1.296l-2.753,0.378l-2.337,-0.089l-2.333,-0.087l-2.334,-0.084l-2.333,-0.083l-2.334,-0.08l-2.334,-0.078l-2.335,-0.076l-2.334,-0.073l-2.335,-0.072l-2.334,-0.069l-2.335,-0.067l-2.335,-0.065l-2.336,-0.063l-2.335,-0.061l-2.336,-0.058l-2.335,-0.057l-2.336,-0.054l-2.336,-0.053l-2.336,-0.05l-2.337,-0.048l-2.336,-0.046l-2.337,-0.044l-2.336,-0.042l-2.337,-0.039l-2.337,-0.038l-2.337,-0.036l-2.337,-0.033l-2.338,-0.032l-2.337,-0.029l-2.337,-0.028l-2.338,-0.025l-2.338,-0.023l-2.338,-0.022l-2.338,-0.019l-2.338,-0.017l-2.338,-0.016l-2.338,-0.013l-2.338,-0.011l-2.339,-0.01l-2.338,-0.007l-2.338,-0.006l-2.339,-0.003l-2.339,-0.002l-2.338,0.001l-2.339,0.002l-2.339,0.004l-2.339,0.007l-2.339,0.008l-2.339,0.01l-2.339,0.012l-2.339,0.014l-2.339,0.016l-2.339,0.018l-2.339,0.019l-2.339,0.022l-2.339,0.023l-2.34,0.025l-2.339,0.027l-2.339,0.029l-2.34,0.031l-2.339,0.033l-2.339,0.035l-2.34,0.036l-2.339,0.038l-2.339,0.04l-2.34,0.042l-2.339,0.044l-2.339,0.045l-2.339,0.047l-2.34,0.049l-2.339,0.051l-2.339,0.053l-2.339,0.054l-2.34,0.057l-2.339,0.057l-2.339,0.06l-2.339,0.062l-2.339,0.063l-2.339,0.065l-2.339,0.066l-2.339,0.069l-2.339,0.07l-2.338,0.072l-2.339,0.073l-2.339,0.076l-2.338,0.077l-2.339,0.078l-2.338,0.081l-2.338,0.082l-2.339,0.083l-2.338,0.086l-2.338,0.087l-2.338,0.088l-2.338,0.091l-2.338,0.092l-2.338,0.093l-2.337,0.095l-2.338,0.097l-2.337,0.099l-2.338,0.1l-2.337,0.101l-2.337,0.104l-2.337,0.105l-2.337,0.106l-2.337,0.108l-2.336,0.11l-2.337,0.111l-2.336,0.113l-2.336,0.114l-2.336,0.116l-2.336,0.117l-2.336,0.119l-2.335,0.121l-2.336,0.122l-2.335,0.123l-2.335,0.125l-2.335,0.127l-2.335,0.128l-2.335,0.13l-2.334,0.131l-2.335,0.132l-2.334,0.134l-2.334,0.136l-2.333,0.137l-2.334,0.138l-2.333,0.14l-2.333,0.141l-2.336,0.143l-2.76,-0.314l-2.487,-1.24l-1.912,-2.015l-1.108,-2.548l-0.17,-2.773l0.789,-2.664l1.652,-2.234l2.317,-1.533l2.702,-0.649l2.34,-0.143l2.343,-0.142l2.344,-0.141l2.343,-0.138l2.344,-0.138l2.344,-0.136l2.344,-0.135l2.345,-0.133l2.344,-0.132l2.345,-0.13l2.346,-0.128l2.345,-0.127l2.345,-0.126l2.346,-0.124l2.346,-0.123l2.346,-0.121l2.346,-0.119l2.347,-0.118l2.347,-0.117l2.346,-0.114l2.347,-0.114l2.348,-0.111l2.347,-0.111l2.348,-0.108l2.347,-0.107l2.348,-0.105l2.348,-0.104l2.348,-0.102l2.349,-0.101l2.348,-0.099l2.349,-0.097l2.349,-0.096l2.349,-0.094l2.349,-0.092l2.349,-0.091l2.349,-0.089l2.35,-0.088l2.349,-0.085l2.35,-0.084l2.35,-0.083l2.35,-0.081l2.35,-0.079l2.35,-0.077l2.35,-0.076l2.351,-0.073l2.35,-0.073l2.351,-0.07l2.35,-0.069l2.351,-0.067l2.351,-0.065l2.351,-0.064l2.351,-0.061l2.351,-0.06l2.351,-0.059l2.352,-0.056l2.351,-0.055l2.351,-0.053l2.352,-0.051l2.351,-0.049l2.352,-0.048l2.351,-0.045l2.352,-0.044l2.352,-0.042l2.352,-0.041l2.351,-0.038l2.352,-0.037l2.352,-0.034l2.352,-0.033l2.352,-0.031l2.352,-0.029l2.352,-0.028l2.352,-0.025l2.352,-0.024l2.352,-0.021l2.352,-0.02l2.352,-0.018l2.353,-0.016l2.352,-0.014l2.352,-0.012l2.352,-0.01l2.352,-0.008l2.352,-0.006l2.352,-0.005l2.352,-0.002l2.352,-0.001l2.352,0.002Z" style="fill:#ba0044;"/><path d="M350.27,270.323c-98.151,18.831 -195.4,43.676 -291.175,72.212" style="fill:#ff3232;"/><path d="M354.162,263.334l2.155,1.753l1.427,2.384l0.525,2.728l-0.44,2.744l-1.352,2.427l-2.101,1.819l-2.595,0.99l-2.297,0.442l-2.292,0.443l-2.292,0.445l-2.292,0.448l-2.292,0.45l-2.291,0.452l-2.291,0.454l-2.291,0.456l-2.29,0.458l-2.29,0.461l-2.289,0.463l-2.29,0.464l-2.289,0.467l-2.288,0.469l-2.289,0.471l-2.288,0.474l-2.287,0.475l-2.288,0.477l-2.287,0.48l-2.286,0.481l-2.286,0.484l-2.286,0.486l-2.286,0.487l-2.285,0.49l-2.285,0.492l-2.285,0.494l-2.284,0.496l-2.284,0.498l-2.283,0.5l-2.283,0.502l-2.283,0.504l-2.283,0.505l-2.282,0.508l-2.281,0.51l-2.282,0.512l-2.281,0.514l-2.28,0.516l-2.281,0.518l-2.28,0.519l-2.279,0.522l-2.279,0.524l-2.279,0.525l-2.278,0.528l-2.278,0.529l-2.278,0.531l-2.277,0.533l-2.277,0.535l-2.276,0.537l-2.276,0.539l-2.276,0.541l-2.276,0.542l-2.274,0.545l-2.275,0.546l-2.274,0.548l-2.274,0.55l-2.273,0.552l-2.273,0.554l-2.272,0.555l-2.273,0.558l-2.271,0.559l-2.272,0.561l-2.271,0.562l-2.27,0.565l-2.27,0.566l-2.27,0.568l-2.269,0.57l-2.269,0.572l-2.268,0.573l-2.268,0.575l-2.268,0.577l-2.267,0.579l-2.267,0.58l-2.266,0.582l-2.266,0.584l-2.265,0.585l-2.265,0.587l-2.265,0.589l-2.264,0.591l-2.264,0.592l-2.263,0.594l-2.263,0.596l-2.262,0.597l-2.262,0.599l-2.261,0.6l-2.261,0.603l-2.261,0.603l-2.26,0.606l-2.26,0.607l-2.259,0.609l-2.259,0.61l-2.258,0.612l-2.258,0.614l-2.257,0.615l-2.258,0.616l-2.256,0.619l-2.256,0.62l-2.255,0.621l-2.256,0.623l-2.254,0.625l-2.254,0.626l-2.254,0.627l-2.253,0.63l-2.253,0.63l-2.252,0.632l-2.252,0.634l-2.251,0.635l-2.251,0.637l-2.25,0.638l-2.25,0.64l-2.249,0.641l-2.249,0.643l-2.248,0.644l-2.248,0.646l-2.247,0.647l-2.247,0.648l-2.247,0.65l-2.245,0.652l-2.246,0.652l-2.245,0.655l-2.244,0.655l-2.244,0.657l-2.243,0.659l-2.243,0.66l-2.242,0.661l-2.242,0.662l-2.241,0.664l-2.241,0.666l-2.243,0.667l-2.76,0.318l-2.702,-0.645l-2.319,-1.53l-1.656,-2.232l-0.792,-2.663l0.166,-2.773l1.105,-2.549l1.91,-2.018l2.484,-1.243l2.248,-0.669l2.25,-0.668l2.251,-0.667l2.251,-0.665l2.252,-0.664l2.253,-0.663l2.253,-0.661l2.253,-0.66l2.255,-0.659l2.254,-0.657l2.255,-0.656l2.256,-0.654l2.257,-0.653l2.257,-0.651l2.257,-0.65l2.258,-0.649l2.258,-0.647l2.26,-0.645l2.259,-0.644l2.26,-0.643l2.261,-0.641l2.261,-0.64l2.262,-0.638l2.262,-0.637l2.262,-0.635l2.264,-0.633l2.263,-0.633l2.264,-0.63l2.265,-0.629l2.266,-0.628l2.265,-0.626l2.266,-0.624l2.267,-0.623l2.268,-0.621l2.267,-0.62l2.269,-0.618l2.269,-0.617l2.269,-0.615l2.27,-0.613l2.27,-0.612l2.271,-0.61l2.271,-0.608l2.272,-0.607l2.272,-0.605l2.273,-0.604l2.273,-0.602l2.274,-0.6l2.274,-0.599l2.275,-0.597l2.275,-0.595l2.276,-0.593l2.276,-0.592l2.277,-0.59l2.277,-0.589l2.277,-0.587l2.278,-0.585l2.279,-0.583l2.279,-0.582l2.279,-0.58l2.28,-0.578l2.28,-0.576l2.281,-0.575l2.281,-0.572l2.282,-0.572l2.282,-0.569l2.283,-0.567l2.283,-0.566l2.284,-0.564l2.284,-0.562l2.284,-0.561l2.285,-0.558l2.285,-0.557l2.286,-0.555l2.287,-0.553l2.286,-0.551l2.287,-0.549l2.288,-0.548l2.288,-0.545l2.288,-0.544l2.289,-0.542l2.289,-0.54l2.29,-0.538l2.29,-0.536l2.291,-0.534l2.291,-0.533l2.291,-0.53l2.292,-0.529l2.292,-0.526l2.293,-0.525l2.293,-0.523l2.293,-0.52l2.294,-0.519l2.295,-0.517l2.294,-0.515l2.296,-0.513l2.295,-0.511l2.296,-0.509l2.296,-0.507l2.297,-0.505l2.297,-0.503l2.298,-0.5l2.298,-0.499l2.298,-0.497l2.299,-0.495l2.299,-0.493l2.299,-0.49l2.3,-0.489l2.301,-0.487l2.3,-0.484l2.301,-0.483l2.302,-0.48l2.302,-0.478l2.302,-0.476l2.302,-0.474l2.303,-0.472l2.304,-0.47l2.303,-0.468l2.304,-0.466l2.305,-0.463l2.305,-0.461l2.305,-0.459l2.305,-0.457l2.306,-0.455l2.307,-0.453l2.306,-0.45l2.307,-0.449l2.308,-0.446l2.303,-0.443l2.778,-0.043l2.626,0.91Z" style="fill:#ba0044;"/></g><g id="front"><path d="M349.692,139.824c-95.343,-29.965 -192.744,-54.208 -290.597,-74.502" style="fill:#ff3232;"/><path d="M60.722,57.489l2.296,0.477l2.298,0.478l2.298,0.481l2.298,0.482l2.297,0.483l2.298,0.485l2.297,0.486l2.297,0.487l2.297,0.49l2.297,0.49l2.296,0.493l2.296,0.493l2.296,0.495l2.296,0.497l2.296,0.498l2.295,0.5l2.296,0.502l2.295,0.502l2.294,0.505l2.295,0.506l2.294,0.507l2.294,0.509l2.294,0.511l2.294,0.512l2.293,0.514l2.293,0.515l2.293,0.517l2.292,0.519l2.292,0.52l2.292,0.522l2.292,0.523l2.292,0.525l2.29,0.527l2.291,0.528l2.291,0.53l2.29,0.531l2.29,0.533l2.289,0.535l2.289,0.536l2.289,0.538l2.289,0.54l2.288,0.542l2.288,0.543l2.288,0.544l2.287,0.547l2.287,0.548l2.286,0.549l2.286,0.552l2.286,0.553l2.285,0.555l2.285,0.556l2.285,0.559l2.284,0.56l2.284,0.561l2.284,0.564l2.283,0.565l2.282,0.567l2.282,0.569l2.282,0.57l2.282,0.572l2.281,0.574l2.28,0.576l2.28,0.577l2.28,0.579l2.279,0.582l2.279,0.582l2.278,0.585l2.278,0.586l2.278,0.589l2.277,0.589l2.276,0.592l2.276,0.594l2.276,0.595l2.275,0.598l2.275,0.599l2.274,0.601l2.273,0.602l2.273,0.605l2.273,0.607l2.272,0.608l2.271,0.61l2.272,0.612l2.27,0.614l2.27,0.616l2.27,0.618l2.268,0.619l2.269,0.622l2.268,0.623l2.267,0.625l2.267,0.628l2.266,0.629l2.266,0.631l2.264,0.633l2.265,0.635l2.264,0.636l2.263,0.639l2.263,0.641l2.262,0.642l2.262,0.645l2.261,0.647l2.26,0.648l2.26,0.651l2.259,0.652l2.258,0.655l2.258,0.656l2.257,0.658l2.257,0.661l2.256,0.662l2.255,0.665l2.255,0.666l2.254,0.669l2.253,0.67l2.253,0.673l2.252,0.674l2.251,0.677l2.251,0.678l2.25,0.681l2.249,0.683l2.249,0.685l2.248,0.686l2.247,0.689l2.246,0.691l2.246,0.693l2.245,0.695l2.245,0.698l2.243,0.699l2.243,0.701l2.239,0.703l2.466,1.279l1.88,2.046l1.067,2.566l0.125,2.775l-0.832,2.651l-1.688,2.207l-2.342,1.496l-2.711,0.605l-2.755,-0.359l-2.232,-0.7l-2.228,-0.697l-2.229,-0.695l-2.23,-0.693l-2.231,-0.69l-2.232,-0.689l-2.232,-0.687l-2.233,-0.684l-2.234,-0.683l-2.234,-0.68l-2.235,-0.678l-2.236,-0.677l-2.237,-0.674l-2.237,-0.673l-2.238,-0.67l-2.239,-0.668l-2.24,-0.667l-2.24,-0.664l-2.241,-0.662l-2.241,-0.661l-2.242,-0.658l-2.243,-0.657l-2.244,-0.654l-2.244,-0.653l-2.245,-0.65l-2.245,-0.649l-2.247,-0.646l-2.246,-0.645l-2.248,-0.643l-2.248,-0.64l-2.249,-0.639l-2.249,-0.637l-2.25,-0.635l-2.251,-0.633l-2.251,-0.631l-2.252,-0.63l-2.253,-0.627l-2.253,-0.626l-2.253,-0.623l-2.255,-0.622l-2.254,-0.62l-2.256,-0.618l-2.256,-0.616l-2.257,-0.614l-2.257,-0.612l-2.257,-0.611l-2.259,-0.608l-2.259,-0.607l-2.259,-0.605l-2.26,-0.603l-2.26,-0.601l-2.261,-0.6l-2.262,-0.598l-2.262,-0.595l-2.263,-0.594l-2.263,-0.593l-2.263,-0.59l-2.265,-0.589l-2.264,-0.586l-2.266,-0.585l-2.265,-0.584l-2.266,-0.581l-2.267,-0.58l-2.267,-0.578l-2.268,-0.576l-2.268,-0.574l-2.268,-0.573l-2.27,-0.571l-2.269,-0.569l-2.27,-0.568l-2.27,-0.565l-2.271,-0.564l-2.271,-0.563l-2.272,-0.56l-2.272,-0.559l-2.273,-0.557l-2.273,-0.555l-2.273,-0.554l-2.274,-0.552l-2.274,-0.551l-2.275,-0.548l-2.275,-0.547l-2.275,-0.546l-2.276,-0.543l-2.276,-0.542l-2.277,-0.541l-2.277,-0.538l-2.277,-0.537l-2.278,-0.536l-2.278,-0.534l-2.279,-0.532l-2.278,-0.53l-2.28,-0.529l-2.279,-0.527l-2.28,-0.526l-2.28,-0.524l-2.281,-0.523l-2.28,-0.521l-2.282,-0.519l-2.281,-0.518l-2.282,-0.516l-2.282,-0.514l-2.282,-0.513l-2.283,-0.512l-2.283,-0.509l-2.283,-0.509l-2.284,-0.507l-2.284,-0.505l-2.284,-0.503l-2.284,-0.502l-2.285,-0.501l-2.285,-0.499l-2.285,-0.498l-2.285,-0.496l-2.286,-0.494l-2.286,-0.493l-2.286,-0.492l-2.286,-0.49l-2.287,-0.488l-2.287,-0.488l-2.287,-0.485l-2.287,-0.484l-2.288,-0.483l-2.287,-0.481l-2.288,-0.48l-2.288,-0.478l-2.289,-0.477l-2.291,-0.476l-2.581,-1.029l-2.073,-1.849l-1.316,-2.447l-0.399,-2.75l0.565,-2.72l1.461,-2.363l2.182,-1.721l2.638,-0.87l2.777,0.084Z" style="fill:#f04;"/><path d="M349.692,182.436c-98.026,-19.469 -197.479,-33.028 -296.953,-42.612" style="fill:#ff3232;"/><path d="M55.842,132.087l2.337,0.227l2.336,0.229l2.336,0.23l2.337,0.232l2.336,0.233l2.337,0.235l2.336,0.236l2.336,0.238l2.336,0.239l2.337,0.241l2.336,0.242l2.336,0.244l2.336,0.245l2.336,0.247l2.337,0.248l2.336,0.25l2.335,0.252l2.336,0.253l2.336,0.254l2.336,0.257l2.336,0.257l2.335,0.26l2.336,0.261l2.335,0.262l2.336,0.264l2.335,0.266l2.335,0.268l2.335,0.269l2.335,0.27l2.335,0.273l2.335,0.273l2.334,0.276l2.335,0.277l2.334,0.279l2.334,0.28l2.334,0.282l2.334,0.284l2.334,0.286l2.334,0.287l2.333,0.289l2.334,0.29l2.333,0.292l2.333,0.294l2.333,0.296l2.333,0.297l2.332,0.299l2.332,0.301l2.333,0.303l2.332,0.304l2.331,0.306l2.332,0.308l2.331,0.309l2.332,0.311l2.331,0.313l2.331,0.315l2.33,0.316l2.331,0.319l2.33,0.32l2.33,0.322l2.329,0.323l2.33,0.326l2.329,0.327l2.329,0.329l2.329,0.331l2.328,0.333l2.328,0.334l2.328,0.337l2.328,0.338l2.328,0.34l2.327,0.342l2.327,0.344l2.326,0.346l2.327,0.347l2.326,0.349l2.326,0.352l2.325,0.353l2.325,0.355l2.325,0.357l2.325,0.359l2.324,0.361l2.324,0.362l2.324,0.365l2.323,0.366l2.323,0.369l2.323,0.37l2.322,0.372l2.322,0.375l2.322,0.376l2.321,0.378l2.321,0.38l2.32,0.382l2.321,0.384l2.319,0.386l2.32,0.388l2.319,0.391l2.319,0.392l2.318,0.394l2.318,0.396l2.318,0.398l2.317,0.4l2.317,0.402l2.316,0.404l2.316,0.406l2.316,0.408l2.315,0.411l2.315,0.412l2.315,0.414l2.313,0.417l2.314,0.418l2.313,0.421l2.313,0.422l2.312,0.425l2.312,0.427l2.311,0.429l2.311,0.431l2.311,0.433l2.309,0.435l2.31,0.438l2.309,0.439l2.309,0.442l2.308,0.444l2.307,0.446l2.308,0.448l2.306,0.45l2.306,0.452l2.306,0.455l2.301,0.456l2.591,1.005l2.09,1.83l1.338,2.435l0.425,2.746l-0.54,2.725l-1.439,2.376l-2.166,1.741l-2.63,0.895l-2.778,-0.058l-2.294,-0.455l-2.291,-0.451l-2.291,-0.45l-2.292,-0.447l-2.293,-0.445l-2.292,-0.443l-2.294,-0.441l-2.294,-0.439l-2.294,-0.437l-2.295,-0.435l-2.296,-0.432l-2.296,-0.431l-2.296,-0.428l-2.297,-0.426l-2.298,-0.424l-2.298,-0.423l-2.298,-0.42l-2.299,-0.418l-2.299,-0.415l-2.3,-0.414l-2.301,-0.412l-2.3,-0.41l-2.302,-0.408l-2.301,-0.406l-2.302,-0.403l-2.303,-0.402l-2.303,-0.4l-2.303,-0.397l-2.304,-0.396l-2.304,-0.394l-2.305,-0.391l-2.305,-0.39l-2.306,-0.388l-2.306,-0.386l-2.306,-0.384l-2.307,-0.381l-2.307,-0.38l-2.308,-0.378l-2.308,-0.376l-2.308,-0.374l-2.309,-0.372l-2.309,-0.371l-2.309,-0.368l-2.31,-0.366l-2.31,-0.365l-2.311,-0.362l-2.311,-0.361l-2.311,-0.359l-2.311,-0.356l-2.312,-0.355l-2.313,-0.353l-2.312,-0.352l-2.313,-0.349l-2.314,-0.347l-2.313,-0.346l-2.314,-0.344l-2.314,-0.342l-2.315,-0.34l-2.315,-0.338l-2.315,-0.337l-2.315,-0.334l-2.316,-0.333l-2.316,-0.331l-2.317,-0.329l-2.316,-0.327l-2.317,-0.326l-2.318,-0.324l-2.317,-0.322l-2.318,-0.32l-2.318,-0.318l-2.318,-0.317l-2.319,-0.315l-2.319,-0.313l-2.319,-0.311l-2.319,-0.31l-2.319,-0.308l-2.32,-0.306l-2.32,-0.304l-2.32,-0.303l-2.321,-0.301l-2.32,-0.299l-2.321,-0.298l-2.321,-0.296l-2.322,-0.294l-2.321,-0.292l-2.322,-0.291l-2.322,-0.289l-2.322,-0.288l-2.322,-0.285l-2.323,-0.284l-2.322,-0.283l-2.323,-0.281l-2.323,-0.279l-2.323,-0.277l-2.324,-0.276l-2.323,-0.274l-2.324,-0.273l-2.324,-0.271l-2.324,-0.269l-2.324,-0.268l-2.324,-0.266l-2.324,-0.265l-2.325,-0.262l-2.324,-0.262l-2.325,-0.26l-2.325,-0.258l-2.325,-0.256l-2.325,-0.255l-2.325,-0.254l-2.326,-0.252l-2.325,-0.25l-2.326,-0.249l-2.325,-0.247l-2.326,-0.246l-2.326,-0.244l-2.325,-0.243l-2.327,-0.241l-2.325,-0.24l-2.326,-0.238l-2.327,-0.237l-2.326,-0.235l-2.326,-0.234l-2.326,-0.232l-2.327,-0.231l-2.326,-0.229l-2.326,-0.228l-2.327,-0.226l-2.329,-0.225l-2.677,-0.744l-2.261,-1.614l-1.573,-2.29l-0.695,-2.69l0.267,-2.766l1.197,-2.507l1.983,-1.947l2.528,-1.151l2.77,-0.217l2.334,0.226Z" style="fill:#f04;"/><path d="M349.692,218.77c-99.866,-3.855 -200.215,-1.648 -299.962,4.487" style="fill:#ff3232;"/><path d="M251.277,208.858l2.352,0.003l2.352,0.006l2.352,0.007l2.352,0.01l2.352,0.011l2.351,0.013l2.352,0.016l2.352,0.017l2.352,0.02l2.351,0.021l2.352,0.024l2.351,0.025l2.352,0.028l2.351,0.03l2.351,0.031l2.352,0.034l2.351,0.036l2.351,0.038l2.351,0.04l2.351,0.042l2.351,0.044l2.35,0.046l2.351,0.049l2.351,0.05l2.35,0.053l2.35,0.054l2.351,0.057l2.35,0.059l2.35,0.061l2.35,0.064l2.349,0.065l2.35,0.068l2.35,0.069l2.349,0.072l2.349,0.074l2.349,0.077l2.35,0.078l2.348,0.081l2.349,0.083l2.349,0.085l2.348,0.087l2.345,0.09l2.715,0.586l2.352,1.48l1.703,2.195l0.85,2.645l-0.105,2.776l-1.049,2.573l-1.866,2.059l-2.457,1.296l-2.753,0.378l-2.337,-0.089l-2.333,-0.087l-2.334,-0.084l-2.333,-0.083l-2.334,-0.08l-2.334,-0.078l-2.335,-0.076l-2.334,-0.073l-2.335,-0.072l-2.334,-0.069l-2.335,-0.067l-2.335,-0.065l-2.336,-0.063l-2.335,-0.061l-2.336,-0.059l-2.335,-0.056l-2.336,-0.054l-2.336,-0.053l-2.336,-0.05l-2.337,-0.048l-2.336,-0.046l-2.337,-0.044l-2.336,-0.042l-2.337,-0.039l-2.337,-0.038l-2.337,-0.036l-2.337,-0.033l-2.338,-0.032l-2.337,-0.029l-2.338,-0.028l-2.337,-0.025l-2.338,-0.023l-2.338,-0.022l-2.338,-0.019l-2.338,-0.018l-2.338,-0.015l-2.338,-0.013l-2.338,-0.012l-2.339,-0.009l-2.338,-0.007l-2.338,-0.006l-2.339,-0.003l-2.339,-0.002l-2.338,0.001l-2.339,0.002l-2.339,0.004l-2.339,0.007l-2.339,0.008l-2.339,0.01l-2.339,0.012l-2.339,0.014l-2.339,0.016l-2.339,0.017l-2.339,0.02l-2.339,0.022l-2.34,0.023l-2.339,0.025l-2.339,0.027l-2.339,0.029l-2.34,0.031l-2.339,0.033l-2.339,0.034l-2.34,0.037l-2.339,0.038l-2.339,0.04l-2.339,0.042l-2.34,0.044l-2.339,0.045l-2.339,0.047l-2.34,0.049l-2.339,0.051l-2.339,0.053l-2.339,0.054l-2.34,0.056l-2.339,0.058l-2.339,0.06l-2.339,0.062l-2.339,0.063l-2.339,0.065l-2.339,0.066l-2.339,0.069l-2.339,0.07l-2.338,0.072l-2.339,0.073l-2.339,0.076l-2.338,0.076l-2.339,0.079l-2.338,0.08l-2.339,0.082l-2.338,0.084l-2.338,0.085l-2.338,0.087l-2.338,0.089l-2.338,0.09l-2.338,0.092l-2.338,0.094l-2.337,0.095l-2.338,0.097l-2.337,0.099l-2.338,0.1l-2.337,0.101l-2.337,0.104l-2.337,0.104l-2.337,0.107l-2.337,0.108l-2.336,0.11l-2.337,0.111l-2.336,0.113l-2.336,0.114l-2.336,0.116l-2.336,0.117l-2.336,0.119l-2.335,0.121l-2.336,0.122l-2.335,0.123l-2.335,0.125l-2.335,0.127l-2.335,0.128l-2.335,0.129l-2.334,0.132l-2.335,0.132l-2.334,0.134l-2.334,0.136l-2.333,0.137l-2.334,0.138l-2.333,0.14l-2.333,0.141l-2.336,0.143l-2.76,-0.314l-2.487,-1.24l-1.912,-2.015l-1.108,-2.548l-0.17,-2.773l0.789,-2.664l1.652,-2.234l2.317,-1.533l2.702,-0.649l2.34,-0.143l2.343,-0.142l2.344,-0.141l2.343,-0.139l2.344,-0.137l2.344,-0.136l2.344,-0.135l2.345,-0.133l2.345,-0.132l2.344,-0.13l2.345,-0.128l2.346,-0.128l2.345,-0.125l2.346,-0.124l2.346,-0.123l2.346,-0.121l2.346,-0.119l2.347,-0.118l2.347,-0.117l2.346,-0.115l2.347,-0.113l2.348,-0.112l2.347,-0.11l2.348,-0.108l2.347,-0.107l2.348,-0.106l2.348,-0.103l2.348,-0.102l2.349,-0.101l2.348,-0.099l2.349,-0.097l2.349,-0.096l2.349,-0.094l2.349,-0.092l2.349,-0.091l2.349,-0.089l2.35,-0.088l2.349,-0.085l2.35,-0.085l2.35,-0.082l2.35,-0.081l2.35,-0.079l2.35,-0.077l2.35,-0.076l2.351,-0.074l2.35,-0.072l2.351,-0.07l2.35,-0.069l2.351,-0.067l2.351,-0.065l2.351,-0.064l2.351,-0.062l2.351,-0.06l2.351,-0.058l2.351,-0.056l2.352,-0.055l2.351,-0.053l2.352,-0.051l2.351,-0.049l2.352,-0.048l2.351,-0.046l2.352,-0.043l2.352,-0.043l2.352,-0.04l2.351,-0.038l2.352,-0.037l2.352,-0.034l2.352,-0.033l2.352,-0.031l2.352,-0.029l2.352,-0.028l2.352,-0.025l2.352,-0.024l2.352,-0.021l2.352,-0.02l2.352,-0.018l2.353,-0.016l2.352,-0.014l2.352,-0.012l2.352,-0.01l2.352,-0.008l2.352,-0.007l2.352,-0.004l2.352,-0.002l2.352,-0.001l2.352,0.002Z" style="fill:#f04;"/><path d="M350.27,262.467c-98.151,18.831 -195.4,43.676 -291.175,72.211" style="fill:#ff3232;"/><path d="M354.162,255.478l2.155,1.752l1.427,2.385l0.525,2.728l-0.44,2.743l-1.352,2.428l-2.101,1.818l-2.595,0.991l-2.297,0.442l-2.292,0.443l-2.292,0.445l-2.292,0.448l-2.292,0.45l-2.291,0.452l-2.291,0.454l-2.291,0.456l-2.29,0.458l-2.29,0.461l-2.289,0.463l-2.29,0.464l-2.289,0.467l-2.288,0.469l-2.289,0.471l-2.288,0.474l-2.287,0.475l-2.288,0.477l-2.286,0.48l-2.287,0.481l-2.287,0.484l-2.285,0.486l-2.286,0.487l-2.285,0.49l-2.285,0.492l-2.285,0.494l-2.284,0.496l-2.284,0.498l-2.283,0.5l-2.283,0.501l-2.283,0.504l-2.283,0.506l-2.282,0.508l-2.281,0.51l-2.282,0.512l-2.281,0.514l-2.28,0.516l-2.281,0.517l-2.28,0.52l-2.279,0.522l-2.279,0.523l-2.279,0.526l-2.278,0.527l-2.278,0.53l-2.278,0.531l-2.277,0.533l-2.277,0.535l-2.276,0.537l-2.276,0.539l-2.276,0.541l-2.276,0.542l-2.274,0.545l-2.275,0.546l-2.274,0.548l-2.274,0.55l-2.273,0.552l-2.273,0.554l-2.272,0.555l-2.273,0.557l-2.271,0.56l-2.272,0.561l-2.271,0.562l-2.27,0.565l-2.27,0.566l-2.27,0.568l-2.269,0.57l-2.269,0.571l-2.268,0.574l-2.268,0.575l-2.268,0.577l-2.267,0.578l-2.267,0.581l-2.266,0.582l-2.266,0.584l-2.265,0.585l-2.265,0.587l-2.265,0.589l-2.264,0.591l-2.264,0.592l-2.263,0.594l-2.263,0.595l-2.262,0.598l-2.262,0.599l-2.261,0.6l-2.261,0.602l-2.261,0.604l-2.26,0.606l-2.26,0.607l-2.259,0.609l-2.259,0.61l-2.258,0.612l-2.258,0.613l-2.257,0.616l-2.257,0.616l-2.257,0.619l-2.256,0.619l-2.255,0.622l-2.256,0.623l-2.254,0.624l-2.254,0.627l-2.254,0.627l-2.253,0.629l-2.253,0.631l-2.252,0.632l-2.252,0.634l-2.251,0.635l-2.251,0.637l-2.25,0.638l-2.25,0.64l-2.249,0.641l-2.249,0.643l-2.248,0.644l-2.248,0.646l-2.247,0.647l-2.247,0.648l-2.247,0.65l-2.246,0.652l-2.245,0.652l-2.245,0.655l-2.244,0.655l-2.244,0.657l-2.243,0.659l-2.243,0.659l-2.242,0.662l-2.242,0.662l-2.241,0.664l-2.241,0.666l-2.243,0.667l-2.76,0.318l-2.702,-0.645l-2.319,-1.531l-1.656,-2.231l-0.792,-2.663l0.166,-2.773l1.105,-2.55l1.91,-2.017l2.484,-1.243l2.248,-0.669l2.25,-0.668l2.251,-0.667l2.251,-0.665l2.252,-0.665l2.253,-0.662l2.253,-0.661l2.253,-0.661l2.255,-0.658l2.254,-0.657l2.256,-0.656l2.255,-0.654l2.257,-0.653l2.257,-0.651l2.257,-0.65l2.258,-0.649l2.259,-0.647l2.258,-0.645l2.26,-0.644l2.26,-0.643l2.261,-0.641l2.261,-0.64l2.262,-0.638l2.262,-0.637l2.262,-0.635l2.264,-0.634l2.263,-0.632l2.264,-0.63l2.265,-0.629l2.266,-0.628l2.265,-0.626l2.267,-0.624l2.266,-0.623l2.268,-0.621l2.267,-0.62l2.269,-0.618l2.269,-0.617l2.269,-0.615l2.27,-0.613l2.27,-0.612l2.271,-0.61l2.271,-0.608l2.272,-0.607l2.272,-0.605l2.273,-0.604l2.273,-0.602l2.274,-0.6l2.274,-0.599l2.275,-0.597l2.275,-0.595l2.276,-0.593l2.276,-0.592l2.277,-0.591l2.277,-0.588l2.277,-0.587l2.278,-0.585l2.279,-0.583l2.279,-0.582l2.279,-0.58l2.28,-0.578l2.28,-0.576l2.281,-0.575l2.282,-0.573l2.281,-0.571l2.282,-0.569l2.283,-0.568l2.283,-0.565l2.284,-0.564l2.284,-0.562l2.284,-0.561l2.285,-0.558l2.285,-0.557l2.286,-0.555l2.287,-0.553l2.286,-0.551l2.287,-0.549l2.288,-0.548l2.288,-0.545l2.288,-0.544l2.289,-0.542l2.289,-0.54l2.29,-0.538l2.29,-0.536l2.291,-0.534l2.291,-0.533l2.291,-0.53l2.292,-0.529l2.292,-0.526l2.293,-0.525l2.293,-0.523l2.293,-0.521l2.294,-0.518l2.295,-0.517l2.294,-0.515l2.296,-0.513l2.295,-0.511l2.296,-0.509l2.296,-0.507l2.297,-0.505l2.297,-0.503l2.298,-0.501l2.298,-0.498l2.298,-0.497l2.299,-0.495l2.299,-0.493l2.299,-0.491l2.3,-0.488l2.301,-0.487l2.3,-0.484l2.301,-0.483l2.302,-0.48l2.302,-0.478l2.302,-0.477l2.302,-0.474l2.303,-0.472l2.304,-0.469l2.303,-0.468l2.304,-0.466l2.305,-0.463l2.305,-0.461l2.305,-0.459l2.305,-0.458l2.306,-0.454l2.306,-0.453l2.307,-0.45l2.307,-0.449l2.308,-0.446l2.303,-0.443l2.778,-0.043l2.626,0.91Z" style="fill:#f04;"/></g></svg>